<svg width="170" height="43" viewBox="0 0 170 43" fill="none" xmlns="http://www.w3.org/2000/svg">
<path d="M10.8963 29.8427C10.8963 31.8162 9.66295 34.2705 5.60599 34.2705H0.377666C0.277503 34.2705 0.181444 34.231 0.110617 34.1606C0.0397912 34.0902 0 33.9947 0 33.8952V20.0926C0 19.9931 0.0397912 19.8976 0.110617 19.8272C0.181444 19.7568 0.277503 19.7173 0.377666 19.7173H5.60599C9.66295 19.7173 10.8963 22.1922 10.8963 24.1686C10.8613 24.7603 10.6685 25.332 10.3376 25.8252C10.0068 26.3184 9.54993 26.7152 9.01383 26.9748C9.57966 27.2117 10.0613 27.6114 10.3967 28.1224C10.7322 28.6335 10.9061 29.2326 10.8963 29.8427ZM7.50907 24.1686C7.50907 23.8343 7.27893 22.7963 5.81547 22.7963H3.32524V25.6846H5.85678C7.29958 25.6436 7.50907 24.5615 7.50907 24.1686ZM7.50907 29.8427C7.50907 29.4058 7.29958 28.4909 5.85678 28.4498H3.32524V31.174H5.81547C7.27893 31.174 7.50907 30.174 7.50907 29.8427Z" fill="#F9F9F9"/>
<path d="M17.591 28.6375V31.174H23.9936C24.093 31.174 24.1883 31.2132 24.2586 31.283C24.3289 31.3529 24.3683 31.4476 24.3683 31.5464V33.8922C24.3687 33.9414 24.3593 33.9901 24.3407 34.0357C24.322 34.0812 24.2945 34.1226 24.2596 34.1575C24.2248 34.1924 24.1834 34.2201 24.1377 34.239C24.0921 34.2579 24.0431 34.2676 23.9936 34.2676H14.6228C14.5226 34.2676 14.4266 34.228 14.3557 34.1577C14.2849 34.0873 14.2451 33.9918 14.2451 33.8922V20.0926C14.2451 19.9931 14.2849 19.8976 14.3557 19.8272C14.4266 19.7568 14.5226 19.7173 14.6228 19.7173H23.9936C24.0431 19.7173 24.0921 19.727 24.1377 19.7459C24.1834 19.7648 24.2248 19.7925 24.2596 19.8274C24.2945 19.8623 24.322 19.9037 24.3407 19.9492C24.3593 19.9947 24.3687 20.0435 24.3683 20.0926V22.4385C24.3687 22.4877 24.3593 22.5364 24.3407 22.5819C24.322 22.6274 24.2945 22.6688 24.2596 22.7037C24.2248 22.7386 24.1834 22.7663 24.1377 22.7852C24.0921 22.8041 24.0431 22.8138 23.9936 22.8138H17.591V25.5351H22.5066C22.6067 25.5351 22.7028 25.5746 22.7736 25.645C22.8444 25.7154 22.8842 25.8109 22.8842 25.9104V28.2563C22.8842 28.3558 22.8444 28.4513 22.7736 28.5217C22.7028 28.5921 22.6067 28.6316 22.5066 28.6316L17.591 28.6375Z" fill="#F9F9F9"/>
<path d="M35.9167 28.8252L38.3214 33.9392C38.3383 33.9744 38.346 34.0133 38.3437 34.0523C38.3414 34.0913 38.3293 34.1291 38.3084 34.1621C38.2875 34.1952 38.2585 34.2225 38.2242 34.2414C38.1898 34.2604 38.1512 34.2704 38.1119 34.2705H35.2057C35.0927 34.2708 34.982 34.24 34.8856 34.1815C34.7892 34.1231 34.7111 34.0392 34.6598 33.9392L32.5266 29.3852H31.0513V33.8952C31.0513 33.9947 31.0115 34.0902 30.9407 34.1606C30.8699 34.231 30.7738 34.2705 30.6737 34.2705H28.1008C28.0513 34.2705 28.0024 34.2608 27.9567 34.2419C27.9111 34.223 27.8696 34.1953 27.8348 34.1604C27.8 34.1255 27.7724 34.0841 27.7538 34.0386C27.7351 33.9931 27.7257 33.9443 27.7261 33.8952V20.0926C27.7257 20.0435 27.7351 19.9947 27.7538 19.9492C27.7724 19.9037 27.8 19.8623 27.8348 19.8274C27.8696 19.7925 27.9111 19.7648 27.9567 19.7459C28.0024 19.727 28.0513 19.7173 28.1008 19.7173H33.3232C37.3802 19.7173 38.6135 22.547 38.6135 24.5205C38.6314 25.4204 38.3861 26.3061 37.9074 27.0702C37.4287 27.8343 36.7372 28.444 35.9167 28.8252ZM35.2676 24.5205C35.2676 23.934 34.9313 22.7963 33.4265 22.7963H31.0425V26.2682H33.5091C33.741 26.2717 33.9713 26.2289 34.1863 26.1424C34.4013 26.0558 34.5965 25.9272 34.7605 25.7642C34.9246 25.6012 35.054 25.4071 35.1411 25.1935C35.2282 24.9798 35.2712 24.751 35.2676 24.5205Z" fill="#F9F9F9"/>
<path d="M44.2195 22.8168H40.7585C40.6584 22.8168 40.5623 22.7772 40.4915 22.7068C40.4207 22.6364 40.3809 22.541 40.3809 22.4414V20.0956C40.3809 19.996 40.4207 19.9005 40.4915 19.8302C40.5623 19.7598 40.6584 19.7202 40.7585 19.7202H51.0853C51.1348 19.7202 51.1838 19.7299 51.2294 19.7488C51.2751 19.7677 51.3165 19.7954 51.3513 19.8303C51.3862 19.8652 51.4137 19.9066 51.4324 19.9521C51.451 19.9977 51.4604 20.0464 51.46 20.0956V22.4414C51.4604 22.4906 51.451 22.5393 51.4324 22.5848C51.4137 22.6304 51.3862 22.6718 51.3513 22.7067C51.3165 22.7416 51.2751 22.7692 51.2294 22.7881C51.1838 22.807 51.1348 22.8168 51.0853 22.8168H47.589V33.8952C47.589 33.9947 47.5492 34.0902 47.4783 34.1606C47.4075 34.231 47.3115 34.2705 47.2113 34.2705H44.5942C44.494 34.2705 44.398 34.231 44.3271 34.1606C44.2563 34.0902 44.2165 33.9947 44.2165 33.8952L44.2195 22.8168Z" fill="#F9F9F9"/>
<path d="M67.1449 26.9865C67.1449 30.1036 65.4306 34.5109 59.8866 34.5109C54.3426 34.5109 52.6077 30.1124 52.6077 26.9865C52.6077 23.9516 54.3249 19.4797 59.8866 19.4797C65.4483 19.4797 67.1449 23.9516 67.1449 26.9865ZM63.737 26.9865C63.737 25.9045 63.2561 22.6203 59.8866 22.6203C56.5171 22.6203 56.0185 25.9045 56.0185 26.9865C56.0185 28.0686 56.4994 31.3851 59.8866 31.3851C63.2738 31.3851 63.737 28.0539 63.737 26.9865Z" fill="#F9F9F9"/>
<path d="M70.8684 34.2705C70.819 34.2705 70.77 34.2607 70.7243 34.2418C70.6787 34.2229 70.6372 34.1953 70.6024 34.1604C70.5676 34.1255 70.54 34.0841 70.5214 34.0385C70.5027 33.993 70.4933 33.9443 70.4937 33.8951V19.8199C70.4913 19.7799 70.4971 19.7399 70.5109 19.7022C70.5246 19.6646 70.546 19.6302 70.5736 19.601C70.6012 19.5719 70.6346 19.5487 70.6716 19.5329C70.7086 19.5171 70.7485 19.509 70.7887 19.509C70.9886 19.5107 71.1812 19.5835 71.3316 19.7143L79.2803 27.095V20.0926C79.2803 19.993 79.3201 19.8976 79.391 19.8272C79.4618 19.7568 79.5578 19.7172 79.658 19.7172H82.2515C82.3517 19.7172 82.4477 19.7568 82.5186 19.8272C82.5894 19.8976 82.6292 19.993 82.6292 20.0926V34.1033C82.6277 34.1749 82.5982 34.2431 82.547 34.2934C82.4957 34.3438 82.4268 34.3724 82.3548 34.3731C82.183 34.3733 82.018 34.307 81.8945 34.1884L73.8632 26.6405V33.8951C73.8636 33.9443 73.8542 33.993 73.8355 34.0385C73.8169 34.0841 73.7893 34.1255 73.7545 34.1604C73.7197 34.1953 73.6782 34.2229 73.6326 34.2418C73.5869 34.2607 73.5379 34.2705 73.4885 34.2705H70.8684Z" fill="#F9F9F9"/>
<path d="M89.7783 19.7173H87.1877C86.9791 19.7173 86.8101 19.8853 86.8101 20.0926V33.8922C86.8101 34.0995 86.9791 34.2676 87.1877 34.2676H89.7783C89.9869 34.2676 90.1559 34.0995 90.1559 33.8922V20.0926C90.1559 19.8853 89.9869 19.7173 89.7783 19.7173Z" fill="#F9F9F9"/>
<path d="M10.8963 29.8427C10.8963 31.8162 9.66295 34.2705 5.60599 34.2705H0.377666C0.277503 34.2705 0.181444 34.231 0.110617 34.1606C0.0397912 34.0902 0 33.9947 0 33.8952V20.0926C0 19.9931 0.0397912 19.8976 0.110617 19.8272C0.181444 19.7568 0.277503 19.7173 0.377666 19.7173H5.60599C9.66295 19.7173 10.8963 22.1922 10.8963 24.1686C10.8613 24.7603 10.6685 25.332 10.3376 25.8252C10.0068 26.3184 9.54993 26.7152 9.01383 26.9748C9.57966 27.2117 10.0613 27.6114 10.3967 28.1224C10.7322 28.6335 10.9061 29.2326 10.8963 29.8427ZM7.50907 24.1686C7.50907 23.8343 7.27893 22.7963 5.81547 22.7963H3.32524V25.6846H5.85678C7.29958 25.6436 7.50907 24.5615 7.50907 24.1686ZM7.50907 29.8427C7.50907 29.4058 7.29958 28.4909 5.85678 28.4498H3.32524V31.174H5.81547C7.27893 31.174 7.50907 30.174 7.50907 29.8427Z" fill="#F9F9F9"/>
<path d="M17.591 28.6375V31.174H23.9936C24.093 31.174 24.1883 31.2132 24.2586 31.283C24.3289 31.3529 24.3683 31.4476 24.3683 31.5464V33.8922C24.3687 33.9414 24.3593 33.9901 24.3407 34.0357C24.322 34.0812 24.2945 34.1226 24.2596 34.1575C24.2248 34.1924 24.1834 34.2201 24.1377 34.239C24.0921 34.2579 24.0431 34.2676 23.9936 34.2676H14.6228C14.5226 34.2676 14.4266 34.228 14.3557 34.1577C14.2849 34.0873 14.2451 33.9918 14.2451 33.8922V20.0926C14.2451 19.9931 14.2849 19.8976 14.3557 19.8272C14.4266 19.7568 14.5226 19.7173 14.6228 19.7173H23.9936C24.0431 19.7173 24.0921 19.727 24.1377 19.7459C24.1834 19.7648 24.2248 19.7925 24.2596 19.8274C24.2945 19.8623 24.322 19.9037 24.3407 19.9492C24.3593 19.9947 24.3687 20.0435 24.3683 20.0926V22.4385C24.3687 22.4877 24.3593 22.5364 24.3407 22.5819C24.322 22.6274 24.2945 22.6688 24.2596 22.7037C24.2248 22.7386 24.1834 22.7663 24.1377 22.7852C24.0921 22.8041 24.0431 22.8138 23.9936 22.8138H17.591V25.5351H22.5066C22.6067 25.5351 22.7028 25.5746 22.7736 25.645C22.8444 25.7154 22.8842 25.8109 22.8842 25.9104V28.2563C22.8842 28.3558 22.8444 28.4513 22.7736 28.5217C22.7028 28.5921 22.6067 28.6316 22.5066 28.6316L17.591 28.6375Z" fill="#F9F9F9"/>
<path d="M35.9167 28.8252L38.3214 33.9392C38.3383 33.9744 38.346 34.0133 38.3437 34.0523C38.3414 34.0913 38.3293 34.1291 38.3084 34.1621C38.2875 34.1952 38.2585 34.2225 38.2242 34.2414C38.1898 34.2604 38.1512 34.2704 38.1119 34.2705H35.2057C35.0927 34.2708 34.982 34.24 34.8856 34.1815C34.7892 34.1231 34.7111 34.0392 34.6598 33.9392L32.5266 29.3852H31.0513V33.8952C31.0513 33.9947 31.0115 34.0902 30.9407 34.1606C30.8699 34.231 30.7738 34.2705 30.6737 34.2705H28.1008C28.0513 34.2705 28.0024 34.2608 27.9567 34.2419C27.9111 34.223 27.8696 34.1953 27.8348 34.1604C27.8 34.1255 27.7724 34.0841 27.7538 34.0386C27.7351 33.9931 27.7257 33.9443 27.7261 33.8952V20.0926C27.7257 20.0435 27.7351 19.9947 27.7538 19.9492C27.7724 19.9037 27.8 19.8623 27.8348 19.8274C27.8696 19.7925 27.9111 19.7648 27.9567 19.7459C28.0024 19.727 28.0513 19.7173 28.1008 19.7173H33.3232C37.3802 19.7173 38.6135 22.547 38.6135 24.5205C38.6314 25.4204 38.3861 26.3061 37.9074 27.0702C37.4287 27.8343 36.7372 28.444 35.9167 28.8252ZM35.2676 24.5205C35.2676 23.934 34.9313 22.7963 33.4265 22.7963H31.0425V26.2682H33.5091C33.741 26.2717 33.9713 26.2289 34.1863 26.1424C34.4013 26.0558 34.5965 25.9272 34.7605 25.7642C34.9246 25.6012 35.054 25.4071 35.1411 25.1935C35.2282 24.9798 35.2712 24.751 35.2676 24.5205Z" fill="#F9F9F9"/>
<path d="M44.2195 22.8168H40.7585C40.6584 22.8168 40.5623 22.7772 40.4915 22.7068C40.4207 22.6364 40.3809 22.541 40.3809 22.4414V20.0956C40.3809 19.996 40.4207 19.9005 40.4915 19.8302C40.5623 19.7598 40.6584 19.7202 40.7585 19.7202H51.0853C51.1348 19.7202 51.1838 19.7299 51.2294 19.7488C51.2751 19.7677 51.3165 19.7954 51.3513 19.8303C51.3862 19.8652 51.4137 19.9066 51.4324 19.9521C51.451 19.9977 51.4604 20.0464 51.46 20.0956V22.4414C51.4604 22.4906 51.451 22.5393 51.4324 22.5848C51.4137 22.6304 51.3862 22.6718 51.3513 22.7067C51.3165 22.7416 51.2751 22.7692 51.2294 22.7881C51.1838 22.807 51.1348 22.8168 51.0853 22.8168H47.589V33.8952C47.589 33.9947 47.5492 34.0902 47.4783 34.1606C47.4075 34.231 47.3115 34.2705 47.2113 34.2705H44.5942C44.494 34.2705 44.398 34.231 44.3271 34.1606C44.2563 34.0902 44.2165 33.9947 44.2165 33.8952L44.2195 22.8168Z" fill="#F9F9F9"/>
<path d="M67.1449 26.9865C67.1449 30.1036 65.4306 34.5109 59.8866 34.5109C54.3426 34.5109 52.6077 30.1124 52.6077 26.9865C52.6077 23.9516 54.3249 19.4797 59.8866 19.4797C65.4483 19.4797 67.1449 23.9516 67.1449 26.9865ZM63.737 26.9865C63.737 25.9045 63.2561 22.6203 59.8866 22.6203C56.5171 22.6203 56.0185 25.9045 56.0185 26.9865C56.0185 28.0686 56.4994 31.3851 59.8866 31.3851C63.2738 31.3851 63.737 28.0539 63.737 26.9865Z" fill="#F9F9F9"/>
<path d="M70.8684 34.2705C70.819 34.2705 70.77 34.2607 70.7243 34.2418C70.6787 34.2229 70.6372 34.1953 70.6024 34.1604C70.5676 34.1255 70.54 34.0841 70.5214 34.0385C70.5027 33.993 70.4933 33.9443 70.4937 33.8951V19.8199C70.4913 19.7799 70.4971 19.7399 70.5109 19.7022C70.5246 19.6646 70.546 19.6302 70.5736 19.601C70.6012 19.5719 70.6346 19.5487 70.6716 19.5329C70.7086 19.5171 70.7485 19.509 70.7887 19.509C70.9886 19.5107 71.1812 19.5835 71.3316 19.7143L79.2803 27.095V20.0926C79.2803 19.993 79.3201 19.8976 79.391 19.8272C79.4618 19.7568 79.5578 19.7172 79.658 19.7172H82.2515C82.3517 19.7172 82.4477 19.7568 82.5186 19.8272C82.5894 19.8976 82.6292 19.993 82.6292 20.0926V34.1033C82.6277 34.1749 82.5982 34.2431 82.547 34.2934C82.4957 34.3438 82.4268 34.3724 82.3548 34.3731C82.183 34.3733 82.018 34.307 81.8945 34.1884L73.8632 26.6405V33.8951C73.8636 33.9443 73.8542 33.993 73.8355 34.0385C73.8169 34.0841 73.7893 34.1255 73.7545 34.1604C73.7197 34.1953 73.6782 34.2229 73.6326 34.2418C73.5869 34.2607 73.5379 34.2705 73.4885 34.2705H70.8684Z" fill="#F9F9F9"/>
<path d="M89.7783 19.7173H87.1877C86.9791 19.7173 86.8101 19.8853 86.8101 20.0926V33.8922C86.8101 34.0995 86.9791 34.2676 87.1877 34.2676H89.7783C89.9869 34.2676 90.1559 34.0995 90.1559 33.8922V20.0926C90.1559 19.8853 89.9869 19.7173 89.7783 19.7173Z" fill="#F9F9F9"/>
<path d="M10.8963 29.8427C10.8963 31.8162 9.66295 34.2705 5.60599 34.2705H0.377666C0.277503 34.2705 0.181444 34.231 0.110617 34.1606C0.0397912 34.0902 0 33.9947 0 33.8952V20.0926C0 19.9931 0.0397912 19.8976 0.110617 19.8272C0.181444 19.7568 0.277503 19.7173 0.377666 19.7173H5.60599C9.66295 19.7173 10.8963 22.1922 10.8963 24.1686C10.8613 24.7603 10.6685 25.332 10.3376 25.8252C10.0068 26.3184 9.54993 26.7152 9.01383 26.9748C9.57966 27.2117 10.0613 27.6114 10.3967 28.1224C10.7322 28.6335 10.9061 29.2326 10.8963 29.8427ZM7.50907 24.1686C7.50907 23.8343 7.27893 22.7963 5.81547 22.7963H3.32524V25.6846H5.85678C7.29958 25.6436 7.50907 24.5615 7.50907 24.1686ZM7.50907 29.8427C7.50907 29.4058 7.29958 28.4909 5.85678 28.4498H3.32524V31.174H5.81547C7.27893 31.174 7.50907 30.174 7.50907 29.8427Z" fill="#F9F9F9"/>
<path d="M17.591 28.6375V31.174H23.9936C24.093 31.174 24.1883 31.2132 24.2586 31.283C24.3289 31.3529 24.3683 31.4476 24.3683 31.5464V33.8922C24.3687 33.9414 24.3593 33.9901 24.3407 34.0357C24.322 34.0812 24.2945 34.1226 24.2596 34.1575C24.2248 34.1924 24.1834 34.2201 24.1377 34.239C24.0921 34.2579 24.0431 34.2676 23.9936 34.2676H14.6228C14.5226 34.2676 14.4266 34.228 14.3557 34.1577C14.2849 34.0873 14.2451 33.9918 14.2451 33.8922V20.0926C14.2451 19.9931 14.2849 19.8976 14.3557 19.8272C14.4266 19.7568 14.5226 19.7173 14.6228 19.7173H23.9936C24.0431 19.7173 24.0921 19.727 24.1377 19.7459C24.1834 19.7648 24.2248 19.7925 24.2596 19.8274C24.2945 19.8623 24.322 19.9037 24.3407 19.9492C24.3593 19.9947 24.3687 20.0435 24.3683 20.0926V22.4385C24.3687 22.4877 24.3593 22.5364 24.3407 22.5819C24.322 22.6274 24.2945 22.6688 24.2596 22.7037C24.2248 22.7386 24.1834 22.7663 24.1377 22.7852C24.0921 22.8041 24.0431 22.8138 23.9936 22.8138H17.591V25.5351H22.5066C22.6067 25.5351 22.7028 25.5746 22.7736 25.645C22.8444 25.7154 22.8842 25.8109 22.8842 25.9104V28.2563C22.8842 28.3558 22.8444 28.4513 22.7736 28.5217C22.7028 28.5921 22.6067 28.6316 22.5066 28.6316L17.591 28.6375Z" fill="#F9F9F9"/>
<path d="M35.9167 28.8252L38.3214 33.9392C38.3383 33.9744 38.346 34.0133 38.3437 34.0523C38.3414 34.0913 38.3293 34.1291 38.3084 34.1621C38.2875 34.1952 38.2585 34.2225 38.2242 34.2414C38.1898 34.2604 38.1512 34.2704 38.1119 34.2705H35.2057C35.0927 34.2708 34.982 34.24 34.8856 34.1815C34.7892 34.1231 34.7111 34.0392 34.6598 33.9392L32.5266 29.3852H31.0513V33.8952C31.0513 33.9947 31.0115 34.0902 30.9407 34.1606C30.8699 34.231 30.7738 34.2705 30.6737 34.2705H28.1008C28.0513 34.2705 28.0024 34.2608 27.9567 34.2419C27.9111 34.223 27.8696 34.1953 27.8348 34.1604C27.8 34.1255 27.7724 34.0841 27.7538 34.0386C27.7351 33.9931 27.7257 33.9443 27.7261 33.8952V20.0926C27.7257 20.0435 27.7351 19.9947 27.7538 19.9492C27.7724 19.9037 27.8 19.8623 27.8348 19.8274C27.8696 19.7925 27.9111 19.7648 27.9567 19.7459C28.0024 19.727 28.0513 19.7173 28.1008 19.7173H33.3232C37.3802 19.7173 38.6135 22.547 38.6135 24.5205C38.6314 25.4204 38.3861 26.3061 37.9074 27.0702C37.4287 27.8343 36.7372 28.444 35.9167 28.8252ZM35.2676 24.5205C35.2676 23.934 34.9313 22.7963 33.4265 22.7963H31.0425V26.2682H33.5091C33.741 26.2717 33.9713 26.2289 34.1863 26.1424C34.4013 26.0558 34.5965 25.9272 34.7605 25.7642C34.9246 25.6012 35.054 25.4071 35.1411 25.1935C35.2282 24.9798 35.2712 24.751 35.2676 24.5205Z" fill="#F9F9F9"/>
<path d="M44.2195 22.8168H40.7585C40.6584 22.8168 40.5623 22.7772 40.4915 22.7068C40.4207 22.6364 40.3809 22.541 40.3809 22.4414V20.0956C40.3809 19.996 40.4207 19.9005 40.4915 19.8302C40.5623 19.7598 40.6584 19.7202 40.7585 19.7202H51.0853C51.1348 19.7202 51.1838 19.7299 51.2294 19.7488C51.2751 19.7677 51.3165 19.7954 51.3513 19.8303C51.3862 19.8652 51.4137 19.9066 51.4324 19.9521C51.451 19.9977 51.4604 20.0464 51.46 20.0956V22.4414C51.4604 22.4906 51.451 22.5393 51.4324 22.5848C51.4137 22.6304 51.3862 22.6718 51.3513 22.7067C51.3165 22.7416 51.2751 22.7692 51.2294 22.7881C51.1838 22.807 51.1348 22.8168 51.0853 22.8168H47.589V33.8952C47.589 33.9947 47.5492 34.0902 47.4783 34.1606C47.4075 34.231 47.3115 34.2705 47.2113 34.2705H44.5942C44.494 34.2705 44.398 34.231 44.3271 34.1606C44.2563 34.0902 44.2165 33.9947 44.2165 33.8952L44.2195 22.8168Z" fill="#F9F9F9"/>
<path d="M67.1449 26.9865C67.1449 30.1036 65.4306 34.5109 59.8866 34.5109C54.3426 34.5109 52.6077 30.1124 52.6077 26.9865C52.6077 23.9516 54.3249 19.4797 59.8866 19.4797C65.4483 19.4797 67.1449 23.9516 67.1449 26.9865ZM63.737 26.9865C63.737 25.9045 63.2561 22.6203 59.8866 22.6203C56.5171 22.6203 56.0185 25.9045 56.0185 26.9865C56.0185 28.0686 56.4994 31.3851 59.8866 31.3851C63.2738 31.3851 63.737 28.0539 63.737 26.9865Z" fill="#F9F9F9"/>
<path d="M70.8684 34.2705C70.819 34.2705 70.77 34.2607 70.7243 34.2418C70.6787 34.2229 70.6372 34.1953 70.6024 34.1604C70.5676 34.1255 70.54 34.0841 70.5214 34.0385C70.5027 33.993 70.4933 33.9443 70.4937 33.8951V19.8199C70.4913 19.7799 70.4971 19.7399 70.5109 19.7022C70.5246 19.6646 70.546 19.6302 70.5736 19.601C70.6012 19.5719 70.6346 19.5487 70.6716 19.5329C70.7086 19.5171 70.7485 19.509 70.7887 19.509C70.9886 19.5107 71.1812 19.5835 71.3316 19.7143L79.2803 27.095V20.0926C79.2803 19.993 79.3201 19.8976 79.391 19.8272C79.4618 19.7568 79.5578 19.7172 79.658 19.7172H82.2515C82.3517 19.7172 82.4477 19.7568 82.5186 19.8272C82.5894 19.8976 82.6292 19.993 82.6292 20.0926V34.1033C82.6277 34.1749 82.5982 34.2431 82.547 34.2934C82.4957 34.3438 82.4268 34.3724 82.3548 34.3731C82.183 34.3733 82.018 34.307 81.8945 34.1884L73.8632 26.6405V33.8951C73.8636 33.9443 73.8542 33.993 73.8355 34.0385C73.8169 34.0841 73.7893 34.1255 73.7545 34.1604C73.7197 34.1953 73.6782 34.2229 73.6326 34.2418C73.5869 34.2607 73.5379 34.2705 73.4885 34.2705H70.8684Z" fill="#F9F9F9"/>
<path d="M89.7783 19.7173H87.1877C86.9791 19.7173 86.8101 19.8853 86.8101 20.0926V33.8922C86.8101 34.0995 86.9791 34.2676 87.1877 34.2676H89.7783C89.9869 34.2676 90.1559 34.0995 90.1559 33.8922V20.0926C90.1559 19.8853 89.9869 19.7173 89.7783 19.7173Z" fill="#F9F9F9"/>
<path d="M135.995 28.5553V33.2031H147.721C147.811 33.2023 147.901 33.2194 147.985 33.2535C148.069 33.2875 148.145 33.3377 148.209 33.4013C148.274 33.4649 148.325 33.5405 148.359 33.6237C148.394 33.707 148.411 33.7963 148.411 33.8863V38.191C148.411 38.2812 148.394 38.3706 148.359 38.4541C148.325 38.5375 148.274 38.6133 148.21 38.6771C148.145 38.7409 148.069 38.7914 147.985 38.8257C147.901 38.8601 147.811 38.8776 147.721 38.8772H130.554C130.464 38.8776 130.374 38.8601 130.29 38.8257C130.206 38.7914 130.13 38.7409 130.065 38.6771C130.001 38.6133 129.95 38.5375 129.916 38.4541C129.881 38.3706 129.864 38.2812 129.864 38.191V12.9113C129.864 12.8211 129.881 12.7317 129.916 12.6482C129.95 12.5648 130.001 12.489 130.065 12.4252C130.13 12.3614 130.206 12.3109 130.29 12.2765C130.374 12.2422 130.464 12.2247 130.554 12.2251H147.721C147.811 12.2247 147.901 12.2422 147.985 12.2765C148.069 12.3109 148.145 12.3614 148.21 12.4252C148.274 12.489 148.325 12.5648 148.359 12.6482C148.394 12.7317 148.411 12.8211 148.411 12.9113V17.216C148.411 17.3062 148.394 17.3956 148.359 17.479C148.325 17.5624 148.274 17.6382 148.21 17.702C148.145 17.7658 148.069 17.8163 147.985 17.8507C147.901 17.885 147.811 17.9025 147.721 17.9021H135.995V22.8871H145C145.091 22.8867 145.181 22.9042 145.265 22.9386C145.349 22.9729 145.425 23.0234 145.489 23.0872C145.553 23.151 145.604 23.2268 145.639 23.3102C145.673 23.3937 145.691 23.4831 145.691 23.5733V27.8662C145.691 27.9565 145.673 28.0458 145.639 28.1293C145.604 28.2127 145.553 28.2885 145.489 28.3523C145.425 28.4161 145.349 28.4666 145.265 28.501C145.181 28.5353 145.091 28.5528 145 28.5524L135.995 28.5553Z" fill="#F9F9F9"/>
<path d="M147.735 38.8772C147.645 38.8776 147.555 38.8601 147.471 38.8258C147.387 38.7914 147.31 38.7409 147.246 38.6771C147.182 38.6133 147.131 38.5375 147.097 38.4541C147.062 38.3707 147.045 38.2812 147.045 38.191V12.9113C147.045 12.8211 147.062 12.7317 147.097 12.6482C147.131 12.5648 147.182 12.489 147.246 12.4252C147.31 12.3614 147.387 12.3109 147.471 12.2765C147.555 12.2422 147.645 12.2247 147.735 12.2251H156.714C166.896 12.2163 169.991 19.9489 169.991 25.5204C169.991 31.2326 166.887 38.8889 156.693 38.8889L147.735 38.8772ZM155.274 33.2031C161.47 33.2031 162.355 27.4909 162.355 25.5086C162.355 23.5264 161.47 17.8552 155.274 17.8552H151.698V33.2031H155.274Z" fill="#F9F9F9"/>
<path d="M113.825 18.4034C114.144 17.5882 114.288 17.0604 114.256 16.8111C114.223 16.5619 114.097 16.4944 113.878 16.6C113.572 16.774 113.296 16.9958 113.061 17.2569C112.746 17.5777 112.451 17.9165 112.176 18.2715C111.708 18.8345 110.921 19.8354 109.815 21.2742C108.71 22.713 107.511 24.4431 106.219 26.4644C104.863 28.6086 103.619 30.8205 102.492 33.0915C101.328 35.3946 100.437 37.8242 99.8367 40.3315V40.3872V40.3315V40.3872C99.7497 41.262 99.9069 42.1437 100.291 42.9354C99.605 43.0161 98.9118 43.0161 98.2257 42.9354C97.5381 42.8707 96.8773 42.638 96.302 42.258C95.7338 41.8713 95.2959 41.3237 95.0451 40.6863C94.7618 40.008 94.7215 39.1155 94.9241 38.0091C95.1069 37.0059 95.3552 36.0156 95.6676 35.0445C96.0374 33.8559 96.4456 32.6057 96.8921 31.294C97.3386 29.9823 97.7979 28.6862 98.27 27.4057C98.7421 26.1311 99.164 24.9855 99.5358 23.969L102.312 16.773C102.523 16.171 102.637 15.5396 102.649 14.9022C102.628 14.4623 102.607 14.0225 102.587 13.5504C102.587 13.5123 102.817 13.6735 103.292 14.0371C103.846 14.4683 104.374 14.9314 104.873 15.4241C105.464 15.9987 106.013 16.6141 106.517 17.2657C106.97 17.7957 107.275 18.4348 107.402 19.1189C107.461 19.5867 107.484 20.0581 107.473 20.5294C107.437 21.1885 107.307 21.8392 107.086 22.4618C107.918 21.1149 108.607 19.982 109.152 19.0632C109.696 18.1444 110.262 17.2793 110.848 16.4681C111.587 15.3666 112.438 14.3436 113.388 13.4155C114.05 12.7226 114.87 12.1977 115.778 11.8848C116.341 11.7626 116.928 11.8393 117.44 12.1018C118.132 12.4067 118.762 12.835 119.298 13.3656C119.883 13.9367 120.332 14.6298 120.614 15.3948C120.914 16.218 120.951 17.1129 120.72 17.9577C120.479 18.9143 120.154 19.8483 119.75 20.7493C120.588 19.4454 121.285 18.3311 121.842 17.4064C122.398 16.4817 122.974 15.6147 123.568 14.8054C124.303 13.71 125.144 12.6886 126.079 11.7558C126.728 11.0634 127.539 10.5399 128.439 10.231C128.888 10.0961 129.451 10.1674 130.13 10.445C130.828 10.7378 131.459 11.1677 131.986 11.7089C132.556 12.2871 132.996 12.9799 133.275 13.741C133.575 14.5641 133.612 15.459 133.381 16.3039C133.071 17.6116 132.624 18.8834 132.048 20.0983C131.398 21.5137 130.701 22.9955 129.956 24.5437C129.21 26.092 128.457 27.6667 127.696 29.2678C126.973 30.7796 126.342 32.3325 125.804 33.9185C125.583 34.6046 125.539 34.9946 125.669 35.0914C125.798 35.1882 126.002 35.1324 126.285 34.9242C126.604 34.6808 126.901 34.4089 127.17 34.112C127.465 33.7836 127.696 33.5255 127.828 33.3613C128.69 32.2451 129.663 30.8629 130.746 29.215C131.83 27.567 132.912 25.9395 133.992 24.3326L138.834 16.8669C138.728 17.2058 138.656 17.5546 138.621 17.9078C138.535 18.4836 138.406 19.0521 138.235 19.6086C137.982 20.4238 137.686 21.2254 137.35 22.0102C136.862 23.1219 136.294 24.197 135.65 25.227L135.302 25.6786L133.968 27.9365C133.199 29.1563 132.421 30.4035 131.634 31.6781C130.848 32.9527 130.044 34.1491 129.224 35.2673C128.472 36.345 127.608 37.3407 126.645 38.2378C125.963 38.9156 125.135 39.43 124.223 39.7421C123.732 39.8764 123.213 39.8642 122.73 39.7069C122.165 39.5402 121.656 39.2263 121.255 38.7979C120.807 38.3132 120.48 37.7305 120.302 37.0971C120.094 36.3063 120.105 35.4746 120.334 34.6897C120.499 33.894 120.767 32.9029 121.137 31.7163C121.506 30.5296 121.906 29.2902 122.334 27.998C122.765 26.7078 123.216 25.4137 123.686 24.1156C124.155 22.8195 124.571 21.6613 124.946 20.6496C125.27 19.8676 125.555 19.1639 125.801 18.5383C126.047 17.9127 126.269 17.3145 126.468 16.7437C126.787 15.9285 126.94 15.3968 126.928 15.1485C126.914 14.8993 126.799 14.826 126.577 14.9315C126.273 15.1067 125.998 15.3283 125.763 15.5884C125.435 15.9226 125.123 16.2628 124.819 16.6117C124.515 16.9607 124.046 17.5911 123.394 18.3887C122.742 19.1863 122.004 20.1628 121.187 21.3211C120.369 22.4794 119.514 23.7403 118.632 25.1331C117.749 26.526 116.9 27.9775 116.088 29.4906C115.288 31.0034 114.568 32.5567 113.931 34.1442C113.309 35.6593 112.834 37.2305 112.515 38.836C112.502 39.6648 112.631 40.4898 112.896 41.2757C112.219 41.3594 111.534 41.3594 110.857 41.2757C110.178 41.2056 109.527 40.9721 108.96 40.5954C108.398 40.2165 107.969 39.6719 107.735 39.0383C107.47 38.358 107.438 37.4637 107.641 36.3552C107.81 35.5635 108.068 34.5743 108.414 33.3877C108.76 32.2011 109.158 30.9519 109.609 29.6402C110.057 28.3294 110.518 27.0304 110.99 25.7548C111.462 24.4792 111.875 23.3298 112.253 22.3152L113.825 18.4034Z" fill="#F9F9F9"/>
<path d="M0 6.21378C0 3.43391 1.93849 1.00006 4.98933 1.00006C5.89827 0.973565 6.79557 1.20852 7.57336 1.6767C8.35116 2.14487 8.97636 2.82634 9.3738 3.63918L7.3763 4.89129C6.8216 3.90602 5.9807 3.09962 4.98933 3.09962C3.31933 3.09962 2.47843 4.65377 2.47843 6.22257C2.47843 7.79138 3.31933 9.37191 4.98933 9.37191C5.96595 9.37191 6.88061 8.67108 7.3763 7.70047L9.3915 8.96725C8.59486 10.4627 7.19632 11.4627 4.98933 11.4627C1.93849 11.4451 0 9.00537 0 6.21378Z" fill="#F9F9F9"/>
<path d="M14.0621 3.68897C14.8348 3.69188 15.5892 3.92242 16.23 4.35143C16.8707 4.78045 17.3691 5.38868 17.6621 6.0992C17.9551 6.80973 18.0295 7.59064 17.8759 8.34318C17.7223 9.09572 17.3476 9.7861 16.7992 10.327C16.2508 10.8679 15.5534 11.2351 14.795 11.382C14.0367 11.529 13.2515 11.4492 12.5388 11.1526C11.8261 10.8561 11.2179 10.3562 10.7911 9.71615C10.3642 9.07608 10.138 8.3246 10.1409 7.55674C10.1464 6.52754 10.5622 5.54247 11.2972 4.81746C12.0323 4.09244 13.0265 3.68663 14.0621 3.68897ZM14.0621 9.51262C15.2187 9.51262 15.6849 8.45111 15.6849 7.55674C15.6849 6.66237 15.2187 5.63019 14.0621 5.63019C12.9055 5.63019 12.3803 6.65944 12.3803 7.55674C12.3803 8.45404 12.9055 9.51262 14.0769 9.51262H14.0621Z" fill="#F9F9F9"/>
<path d="M19.0811 1.14966H21.2585V11.3044H19.0811V1.14966Z" fill="#F9F9F9"/>
<path d="M26.2182 3.68907C28.4547 3.68907 29.93 5.12299 30.11 7.58616C30.1247 7.80901 30.1247 8.22834 30.1247 8.46586H24.7902C24.9189 8.79403 25.1439 9.07623 25.4358 9.27594C25.7278 9.47565 26.0733 9.58367 26.4277 9.58602C26.7551 9.58803 27.0778 9.50859 27.3664 9.35494C27.655 9.20129 27.9003 8.97831 28.08 8.70631L29.809 9.55669C29.4653 10.1485 28.9666 10.6366 28.366 10.9691C27.7654 11.3016 27.0854 11.4661 26.3982 11.4451C23.8136 11.4451 22.3855 9.68572 22.3855 7.54804C22.39 6.53454 22.7936 5.56308 23.51 4.84178C24.2264 4.12048 25.1986 3.70669 26.2182 3.68907ZM25.6458 1.14966H28.1243L26.2772 3.2023H24.4007L25.6458 1.14966ZM27.7761 6.88533C27.6581 6.21382 27.2214 5.55404 26.3185 5.55404C25.9395 5.55342 25.5727 5.68711 25.2839 5.93111C24.9951 6.17511 24.8033 6.51343 24.743 6.88533H27.7761Z" fill="#F9F9F9"/>
<path d="M34.347 3.68907C34.709 3.67652 35.0698 3.73914 35.4061 3.87294C35.7424 4.00674 36.0469 4.20878 36.3003 4.46614V3.83862H38.4777V10.0933C38.4777 12.4099 37.1854 13.9904 34.5417 13.9904C33.6486 13.991 32.7627 13.8301 31.9276 13.5154V11.5126C32.6744 11.8325 33.4752 12.0096 34.288 12.0345C35.657 12.0345 36.3032 11.3924 36.3032 10.3778V10.0845C35.7777 10.5831 35.0764 10.8569 34.35 10.8469C32.261 10.8469 30.8772 9.21948 30.8772 7.24894C30.8772 5.27841 32.258 3.68907 34.347 3.68907ZM33.1284 7.25774C33.1284 8.02015 33.5651 8.84121 34.6627 8.84121C35.2796 8.78928 35.8588 8.5248 36.3003 8.09346V6.57157C36.1066 6.31695 35.8602 6.10664 35.5777 5.95487C35.2952 5.8031 34.9831 5.71341 34.6627 5.69187C33.5651 5.7036 33.1284 6.48067 33.1284 7.25774Z" fill="#F9F9F9"/>
<path d="M39.9795 3.10553V1.14966H42.1599V3.10553H39.9795ZM39.9795 3.83862H42.1599V11.3044H39.9795V3.83862Z" fill="#F9F9F9"/>
<path d="M47.2054 3.68898C47.9781 3.69189 48.7325 3.92242 49.3733 4.35144C50.014 4.78046 50.5124 5.38869 50.8054 6.09921C51.0984 6.80973 51.1728 7.59064 51.0192 8.34319C50.8656 9.09573 50.4909 9.78611 49.9425 10.327C49.3941 10.8679 48.6967 11.2351 47.9383 11.382C47.18 11.529 46.3948 11.4492 45.6821 11.1526C44.9694 10.8561 44.3612 10.3562 43.9344 9.71615C43.5076 9.07609 43.2813 8.32461 43.2842 7.55675C43.2889 6.5273 43.7045 5.54178 44.4397 4.8166C45.1749 4.09142 46.1696 3.68586 47.2054 3.68898ZM47.2231 9.51262C48.3798 9.51262 48.8459 8.45111 48.8459 7.55675C48.8459 6.66238 48.3798 5.63019 47.2231 5.63019C46.0665 5.63019 45.5384 6.65945 45.5384 7.55675C45.5384 8.45405 46.0488 9.51262 47.2231 9.51262Z" fill="#F9F9F9"/>
</svg>
